# xmcd CD database file
#
# Track frame offsets:
#	150
#	27332
#	65560
#	86920
#	134367
#	154045
#	206125
#	227777
#	278087
#	301550
#	320077
#
# Disc length: 4545 seconds
#
# Revision: 0
# Processed by: cddbd v1.5.1PL2 Copyright (c) Steve Scherf et al.
# Submitted via: CDex 1.51
#
DISCID=9911bf0b
DTITLE=WeiB kreuz - WeiB Kreuz Radio Selection IV
DYEAR=1900
DGENRE=General Unclassifiable
TTITLE0=Opening Talk
TTITLE1=Talk Part I
TTITLE2=十文字〜海を生きる〜
TTITLE3=Talk Part II
TTITLE4=サンチョ〜九州への郷愁〜
TTITLE5=Talk Part III
TTITLE6=ばんちゅうた〜勇気の果てに〜
TTITLE7=Talk Part IV
TTITLE8=サチコ〜その数奇な運命〜
TTITLE9=EndingTalk
TTITLE10=Shadows and Lights - Trance Mix -
EXTD=
EXTT0=
EXTT1=
EXTT2=
EXTT3=
EXTT4=
EXTT5=
EXTT6=
EXTT7=
EXTT8=
EXTT9=
EXTT10=
PLAYORDER=
